<?xml version="1.0" standalone="no"?>
<!DOCTYPE svg PUBLIC "-//W3C//DTD SVG 20010904//EN"
 "http://www.w3.org/TR/2001/REC-SVG-20010904/DTD/svg10.dtd">
<svg version="1.0" xmlns="http://www.w3.org/2000/svg"
 width="2048.000000pt" height="2048.000000pt" viewBox="0 0 2048.000000 2048.000000"
 preserveAspectRatio="xMidYMid meet">

<g transform="translate(0.000000,2048.000000) scale(0.100000,-0.100000)"
fill="#000000" stroke="none">
<path d="M3726 18979 c-290 -42 -558 -215 -724 -467 -70 -107 -113 -204 -151
-341 l-26 -96 0 -5070 c0 -5400 -3 -5112 47 -5280 49 -169 153 -341 288 -476
140 -141 303 -236 498 -292 l77 -22 2039 -3 2039 -2 -7 -65 c-15 -145 -106
-378 -201 -510 -131 -184 -272 -293 -502 -390 -159 -66 -269 -146 -332 -241
-68 -103 -60 -174 26 -215 35 -17 75 -24 176 -31 74 -5 1542 -7 3347 -6 3475
3 3243 -1 3318 55 93 69 106 228 26 321 -45 53 -95 71 -225 83 -240 21 -407
112 -549 301 -67 88 -142 230 -185 348 -28 80 -95 315 -95 336 0 11 361 14
1978 17 l1977 3 114 22 c131 25 291 77 383 123 334 168 528 480 577 931 8 68
11 1615 11 5071 0 4327 -2 4985 -15 5058 -79 456 -419 783 -870 838 -110 13
-12947 13 -13039 0z m12134 -5209 l0 -3510 -5670 0 -5670 0 0 3503 c0 1927 3
3507 7 3510 3 4 2555 7 5670 7 l5663 0 0 -3510z m-5484 -4691 c113 -42 194
-117 248 -229 28 -60 31 -73 31 -165 -1 -90 -4 -107 -31 -165 -83 -176 -264
-280 -436 -250 -242 42 -409 271 -358 491 39 168 183 312 339 339 61 11 144 2
207 -21z"/>
<path d="M1407 3352 l-1247 -1247 0 -308 0 -307 10080 0 10080 0 0 308 0 308
-1187 1247 -1188 1247 -7645 0 -7645 0 -1248 -1248z m1812 713 c232 -49 367
-178 307 -293 -38 -72 -152 -140 -289 -171 -121 -28 -200 -33 -321 -21 -349
35 -529 220 -359 370 135 118 415 167 662 115z m1481 -6 c110 -28 217 -85 257
-137 64 -85 39 -173 -70 -243 -198 -128 -555 -141 -783 -29 -248 122 -200 309
104 400 142 43 342 47 492 9z m1448 1 c158 -38 282 -123 297 -204 32 -169
-291 -313 -623 -276 -167 18 -283 61 -360 134 -85 79 -83 157 6 238 132 120
432 167 680 108z m1418 9 c143 -26 285 -103 318 -172 38 -82 11 -152 -83 -215
-210 -140 -636 -144 -838 -7 -161 109 -143 239 45 334 144 73 362 96 558 60z
m1494 -10 c154 -40 255 -105 286 -184 16 -42 16 -48 0 -90 -31 -80 -129 -143
-291 -186 -106 -28 -313 -31 -430 -5 -107 24 -210 74 -264 130 -37 38 -44 52
-48 93 -6 66 19 108 96 160 149 102 431 138 651 82z m1345 20 c173 -20 325
-90 379 -173 119 -184 -222 -368 -605 -326 -338 37 -518 220 -359 364 121 109
353 163 585 135z m1564 -20 c155 -40 256 -105 287 -184 16 -42 16 -48 0 -90
-31 -80 -129 -143 -291 -186 -102 -27 -310 -30 -429 -6 -132 27 -257 95 -297
161 -23 37 -25 106 -4 145 41 80 209 160 382 181 95 12 262 2 352 -21z m1337
21 c167 -21 296 -73 364 -146 94 -102 47 -211 -124 -289 -108 -50 -210 -69
-356 -68 -239 1 -420 68 -497 182 -120 178 243 367 613 321z m1459 -1 c173
-21 338 -95 385 -171 26 -43 26 -113 1 -154 -74 -121 -364 -205 -606 -175
-178 22 -289 65 -366 141 -56 56 -67 99 -43 159 39 98 201 179 399 201 105 11
132 11 230 -1z m1519 -14 c156 -33 296 -128 312 -210 19 -105 -95 -205 -294
-256 -238 -61 -550 -12 -681 107 -97 87 -96 164 5 253 71 62 184 100 369 125
51 7 217 -4 289 -19z m1301 14 c241 -29 405 -129 405 -247 0 -79 -53 -137
-173 -192 -192 -86 -508 -86 -695 1 -121 55 -172 111 -172 189 0 53 20 90 67
128 81 63 196 105 333 122 97 11 136 11 235 -1z m-15103 -810 c146 -23 271
-79 331 -150 109 -126 3 -261 -258 -329 -156 -41 -408 -25 -561 36 -68 28
-146 89 -169 135 -69 132 94 267 373 308 84 13 204 12 284 0z m1540 -18 c178
-46 288 -135 288 -231 0 -123 -193 -231 -455 -255 -175 -16 -423 45 -521 128
-48 41 -78 106 -70 151 20 106 181 196 411 230 69 10 272 -3 347 -23z m1457
-1 c189 -54 281 -129 281 -231 0 -58 -32 -104 -103 -150 -181 -117 -520 -137
-747 -45 -122 50 -190 122 -190 202 0 106 142 202 356 239 112 20 307 13 403
-15z m1361 20 c212 -34 380 -141 380 -243 0 -122 -169 -226 -421 -258 -165
-21 -385 19 -509 93 -70 42 -120 107 -120 155 0 43 37 110 77 139 132 97 387
146 593 114z m1550 -20 c153 -44 262 -120 276 -195 22 -117 -79 -209 -293
-267 -119 -31 -324 -29 -454 5 -118 31 -182 63 -236 117 -57 56 -70 98 -48
155 51 135 274 219 555 210 88 -2 147 -10 200 -25z m1360 20 c136 -22 247 -68
316 -132 161 -148 -15 -328 -362 -369 -203 -24 -450 34 -557 130 -53 48 -70
85 -64 138 9 78 80 142 216 193 113 43 316 61 451 40z m1542 -19 c179 -47 288
-134 288 -231 0 -154 -301 -278 -606 -249 -218 20 -373 90 -424 190 -35 69
-22 118 49 182 102 92 277 139 496 132 77 -2 148 -11 197 -24z m1457 -1 c233
-66 335 -185 261 -305 -43 -69 -177 -139 -320 -165 -94 -18 -270 -15 -370 5
-451 91 -436 399 24 480 114 20 308 13 405 -15z m1441 4 c79 -21 162 -56 213
-91 44 -31 87 -98 87 -137 0 -92 -95 -173 -264 -225 -288 -89 -681 -7 -766
160 -26 50 -25 84 4 133 50 85 177 146 364 176 82 13 286 4 362 -16z m1345 16
c135 -20 250 -67 320 -132 83 -76 84 -151 5 -228 -56 -54 -160 -103 -274 -127
-95 -20 -289 -19 -391 2 -139 28 -274 105 -311 176 -96 187 273 362 651 309z
m1450 -5 c373 -65 481 -291 203 -424 -260 -123 -680 -89 -837 68 -97 97 -69
198 80 284 128 74 364 105 554 72z m1418 -19 c110 -33 176 -66 221 -111 169
-169 -85 -368 -469 -368 -212 0 -370 48 -467 143 -55 53 -58 58 -58 105 0 114
134 209 351 250 116 22 312 13 422 -19z"/>
</g>
</svg>
