<?xml version="1.0" standalone="no"?>
<!DOCTYPE svg PUBLIC "-//W3C//DTD SVG 20010904//EN"
 "http://www.w3.org/TR/2001/REC-SVG-20010904/DTD/svg10.dtd">
<svg version="1.0" xmlns="http://www.w3.org/2000/svg"
 width="360.000000pt" height="360.000000pt" viewBox="0 0 360.000000 360.000000"
 preserveAspectRatio="xMidYMid meet">

<g transform="translate(0.000000,360.000000) scale(0.100000,-0.100000)"
fill="#000000" stroke="none">
<path d="M2021 3243 c-2 -146 -52 -219 -272 -398 -130 -106 -204 -186 -215
-232 -13 -49 2 -121 37 -179 34 -57 203 -243 213 -233 3 2 -26 52 -64 109
-105 160 -113 229 -39 339 22 33 70 84 107 114 107 88 196 187 232 257 43 84
52 192 21 255 l-19 40 -1 -72z"/>
<path d="M2130 2849 c-159 -66 -270 -153 -308 -242 -32 -75 -3 -187 71 -275
50 -60 57 -104 25 -164 -20 -38 -22 -45 -9 -38 33 17 102 94 117 128 26 64 18
92 -58 204 -53 78 -59 123 -24 182 31 53 112 123 220 190 111 70 105 73 -34
15z"/>
<path d="M2323 2180 c-31 -13 -29 -22 2 -14 66 16 148 -35 161 -101 13 -71
-59 -166 -181 -239 -71 -43 -59 -46 33 -10 90 36 168 89 199 135 76 115 4 239
-137 238 -30 0 -65 -4 -77 -9z"/>
<path d="M1381 2149 c-93 -25 -181 -66 -181 -84 0 -94 768 -96 972 -3 27 12
46 23 45 25 -2 2 -78 -6 -168 -18 -201 -27 -599 -33 -661 -11 -68 24 -48 48
77 88 66 22 68 23 30 23 -22 0 -73 -9 -114 -20z"/>
<path d="M1408 1908 c-60 -35 -61 -64 0 -92 96 -46 340 -60 541 -31 119 18
224 45 201 53 -8 3 -27 13 -41 23 -25 18 -33 18 -120 5 -151 -23 -286 -28
-403 -17 -120 12 -154 28 -135 62 13 24 3 24 -43 -3z"/>
<path d="M1463 1680 c-61 -37 -30 -85 76 -118 44 -13 93 -17 221 -17 141 0
177 3 249 23 122 33 124 35 62 66 l-52 27 -131 -17 c-110 -14 -147 -14 -241
-5 -117 13 -152 24 -143 47 7 19 -3 18 -41 -6z"/>
<path d="M1234 1545 c-127 -27 -221 -86 -198 -123 16 -25 67 -39 201 -57 204
-27 448 -36 638 -25 378 23 653 105 593 178 -11 13 -13 11 -18 -9 -3 -15 -20
-31 -43 -42 -50 -25 -198 -54 -337 -66 -165 -14 -666 -6 -760 12 -92 18 -153
42 -148 59 6 19 91 59 137 65 23 3 38 9 35 14 -7 12 -25 10 -100 -6z"/>
<path d="M2529 1395 c-168 -108 -729 -161 -1164 -110 l-40 4 45 -14 c150 -50
631 -54 880 -9 169 30 277 75 309 126 18 28 11 29 -30 3z"/>
<path d="M1090 806 c0 -352 -5 -387 -60 -439 -39 -37 -40 -38 -24 -62 20 -31
32 -31 79 1 100 67 105 92 105 481 l0 313 -50 0 -50 0 0 -294z"/>
<path d="M1347 916 c-58 -16 -60 -17 -51 -50 5 -20 11 -25 23 -20 9 4 52 9 97
12 75 4 83 3 103 -19 15 -16 21 -36 21 -66 l0 -43 -58 0 c-150 0 -246 -89
-214 -198 18 -58 52 -85 117 -90 45 -4 65 0 108 22 65 31 67 31 67 6 0 -17 7
-20 40 -20 l40 0 0 176 c0 201 -9 244 -54 277 -25 18 -47 22 -111 24 -44 2
-101 -3 -128 -11z m193 -303 c-1 -51 -4 -60 -27 -77 -14 -10 -45 -21 -68 -24
-53 -6 -85 21 -85 71 0 60 37 86 123 87 l57 0 0 -57z"/>
<path d="M2059 923 l-45 -4 -18 -87 c-15 -76 -55 -227 -73 -272 -6 -17 -3 -28
-70 197 l-48 163 -54 0 c-38 0 -52 -3 -48 -12 8 -23 119 -382 129 -420 l10
-38 63 0 64 0 39 103 c52 135 119 385 100 375 -1 -1 -23 -3 -49 -5z"/>
<path d="M2240 917 c-36 -10 -46 -17 -48 -36 -5 -35 7 -40 73 -27 66 14 129 7
153 -17 9 -9 16 -34 16 -59 l1 -43 -75 -6 c-132 -11 -200 -65 -200 -159 0 -60
28 -105 75 -120 54 -18 127 -8 175 24 l40 26 6 -25 c5 -21 12 -25 40 -25 l34
0 0 199 c0 188 -1 200 -22 226 -12 15 -36 34 -54 41 -40 17 -151 17 -214 1z
m200 -305 c0 -57 -1 -59 -39 -80 -76 -43 -143 -19 -143 51 0 64 31 85 125 86
l57 1 0 -58z"/>
<path d="M2605 920 c3 -5 8 -10 11 -10 2 0 4 5 4 10 0 6 -5 10 -11 10 -5 0 -7
-4 -4 -10z"/>
</g>
</svg>
